<svg id="Layer_1" data-name="Layer 1" xmlns="http://www.w3.org/2000/svg" width="261.9591mm"
    height="192.1902mm" viewBox="0 0 742.5611 544.7912">
    <path
        d="M274.1925.0378A94.1833,94.1833,0,0,0,232.8077,178.805C200.9537,192.1678,173.91,221.4914,157.03,260.97a465.4012,465.4012,0,0,0,128.5008,45.5043c30.0843,6.0471,53.6679,8.2392,89.95,8.2392,10.8848.0378,18.8972,0,25.9269-.2267-10.0377-63.1588-43.5965-114.3233-88.25-134.5479a94.1831,94.1831,0,0,0,43.0855-39.4573l62.663,32.8811-35.3755-47.3941,54.1971-15.3823-69.6172-8.6927A94.21,94.21,0,0,0,274.1925,0Zm52.5341,59.1481a15.6911,15.6911,0,0,1,15.0926,19.72l-.0126.0469a15.6847,15.6847,0,0,1-19.2162,11.08l-.0212-.0057a15.6847,15.6847,0,0,1-11.1121-19.1973l.0006-.0023a15.6848,15.6848,0,0,1,14.9666-11.6406q.151-.0015.3023,0ZM515.018,128.9164a50.0774,50.0774,0,0,0-40.969,21.5428l-31.067-20.6357,14.74,25.2844-28.5348,6.7274,36.7361,8.0124a50.0776,50.0776,0,0,0,18.8216,48.9437c-23.5494,16.6453-38.3558,49.9924-38.3612,86.3978q.0114,2.4582.1133,4.9133A457.7634,457.7634,0,0,0,582.33,267.8484c-6.7152-22.1826-19.17-40.1579-34.96-50.4554a50.0263,50.0263,0,0,0-11.01-83.74l-.0263-.0123A50.08,50.08,0,0,0,515.018,128.9164Zm-14.5886,15.9493a8.3815,8.3815,0,0,1,7.6361,11.8207l-.0394.0845a8.3147,8.3147,0,0,1-11.0437,4.038l-.0679-.0318a8.3148,8.3148,0,0,1-4.062-11.035l.018-.0388A8.3147,8.3147,0,0,1,500.4294,144.8657Zm916.55-29.2528c-15.798,1.6629-19.464,20.7112-17.0074,33.6369.4913,65.0063-1.4362,130.3149,1.2094,195.0566,5.4046,12.3965,24.8309,16.7429,32.2386,3.7794,6.9541-11.943.1889-26.456,2.6456-39.3817-.4913-61.1134,1.4362-122.7938-.9448-183.5293-4.5354-5.1778-10.8092-10.1666-18.1413-9.5619Zm-391.7761,15.3445c-11.943.4535-19.1239,13.4169-15.9114,24.1883-.3779,13.3414.4536,26.6828-.7936,39.9864-12.7745-1.0582-31.8984.7181-33.9015,16.7429-1.7385,14.7776,15.6469,23.2814,28.3457,19.6531,6.9163-1.5874,7.6723,4.5353,5.9338,9.5241.9448,35.2243-.756,70.7888,1.474,105.8242,6.6518,12.3587,25.2844,11.9808,31.6338-.378,7.5589-16.1381.7937-34.544,3.3638-51.5892.5669-20.7869-1.9653-43.8793,1.3984-63.3434,14.8531-.9826,36.7361,5.6314,45.3532-10.7713,5.3668-12.7367-6.7274-27.4387-20.2956-25.2467-8.7305-.4913-17.4988.2646-26.2293-.5291-2.7212-18.7082,4.9511-41.12-6.1983-58.2033a17.4235,17.4235,0,0,0-14.1729-5.8581Zm444.65,19.653c-17.2721.9827-24.075,27.3253-8.2015,35.5645,14.3618,9.7131,34.96-7.6345,27.3631-23.5459-2.7212-7.7478-11.3005-12.2076-19.1618-11.9808Zm276.1254,45.202c-42.8588,2.3811-78.8013,43.2745-74.6817,86.1711,2.0787,43.2745,44.2194,78.8768,87.1916,73.9257a79.3491,79.3491,0,0,0,37.6809-13.2658c2.6457,27.7033-27.0986,53.4034-53.97,42.7832-13.5681-3.9684-20.22-17.0074-28.3457-27.0985-11.1116-9.4486-31.3693-.0378-28.4592,15.2689,2.6079,18.8972,19.54,32.6543,34.922,41.9139,37.19,19.842,88.3253,2.3811,104.8037-36.6605,13.0013-28.7237,4.3842-61.1134,6.8408-91.4622-.5292-26.9852,1.1338-54.6129-1.3984-81.1823-6.8029-12.4721-27.212-13.7193-33.2968.0756-.7559,7.8234-7.9368-2.9479-12.4344-3.0613a85.7556,85.7556,0,0,0-38.8525-7.4077Zm-585.8122-.0755c-42.2541.8692-79.2548,39.6084-77.4029,82.0137.378,37.6431,30.2355,72.2628,67.6519,77.3272,19.8042,4.5353,42.1406-2.9858,57.6363-11.5273,4.46,16.5917,32.0874,16.4028,34.8464-1.285,3.4771-18.2169-.7181-36.5849,1.02-54.9908,3.8928-36.6983-18.2546-74.7193-53.7057-86.6624a79.822,79.822,0,0,0-30.0465-4.8754Zm166.7864.1889c-38.7392,1.89-72.49,37.9834-69.3526,77.1761,1.1337,22.6388-.378,45.3532.68,67.9164.756,17.8767,27.8166,19.653,33.9015,4.3085,4.9133-29.026-1.55-59.4127,3.7039-88.5521,9.0707-25.4356,45.8068-33.1834,63.6835-12.7367,9.3352,10.847,28.9505,6.8786,31.9363-7.4455,3.5526-14.4374-12.3966-23.3191-22.0341-30.4622a75.3627,75.3627,0,0,0-42.5186-10.2045Zm-422.5407,0c-25.5112-.4913-53.3278,18.1791-52.7231,45.7312-2.4566,20.8624,13.8328,39.0037,33.5236,43.35,18.0657,7.1053,40.2888,1.9653,55.8978,14.8154,5.6692,13.87-13.606,20.8624-24.264,20.4089-18.7082,1.5118-36.8117-9.0706-46.8649-24.68-13.1147-11.7162-37.6432,6.5006-26.91,22.0719,20.4845,37.4164,74.19,49.5106,110.7,29.2528,28.3457-14.0973,33.9015-58.77,7.8234-77.7429-18.5949-14.5886-43.7281-12.4722-65.5353-16.9319-7.9369-2.6456-11.7163-16.1382-.7559-17.7633,18.746-6.3873,38.1345,2.0409,54.0459,11.4895,17.1964,4.4219,30.16-21.5428,14.3618-31.6717-16.1382-13.8327-38.4746-18.935-59.3371-18.2925Zm567.4442.0378c-15.7981-.3779-22.261,18.4815-18.6326,31.4827.68,39.0416-1.4362,78.4611,1.1338,117.2759,5.7825,14.513,30.5377,15.2311,34.09-1.285,2.4189-15.0422-.8315-30.3867.7181-45.5422-.2646-30.4245,1.02-61.2268-.7559-91.4623-3.8928-5.3668-9.5242-10.5824-16.554-10.469Zm104.9926.1512c-12.2453.68-24.34,6.16-34.5062,11.5651-5.0266-16.9319-34.3929-14.2107-34.7709,4.1574-2.7967,29.9709.5669,60.2063-1.096,90.2528,1.02,14.9288-2.2677,31.2937,3.4771,45.3532,7.3321,12.6989,29.5552,10.7714,32.4653-4.4219,1.7008-13.9839-.378-28.119.907-42.1785-1.3983-21.9207-2.192-50.6444,19.9933-62.9654,22.6766-14.2484,57.8253.3024,59.8662,28.119,2.8346,27.0986-3.7039,55.2931,3.9683,81.7492,7.9369,14.8154,35.4511,7.9746,31.8606-10.0533.378-28.3458,1.02-57.07-.907-85.1885-9.184-32.9188-41.12-57.9765-75.5887-56.5025-1.89-.0756-3.7794,0-5.6691.1134Zm-409.2749,36.2826c30.0843,1.89,50.6444,39.3061,33.9394,65.233-13.6437,24.9443-52.4207,30.6134-70.8266,7.7479-20.9381-20.8247-11.3-60.1308,15.8737-69.92,6.2739-2.8723,13.9839-3.3258,21.0136-3.0235Zm581.806.0378c32.5787-3.5905,58.4679,36.8873,40.7045,64.7795-13.0768,24.6041-50.4932,30.7646-69.6172,9.7131-21.2783-19.3507-14.9666-56.8049,10.1288-69.5416a38.4367,38.4367,0,0,1,18.7838-4.9132Z"
        fill="#46a9dd" />
    <path
        d="M93.1954,249.1024c3.5527,1.3228,5.1778,2.3055,23.8482,14.2863,54.2349,34.6952,106.8446,56.1624,167.6935,68.37,30.0465,6.0471,53.6679,8.2391,89.9127,8.2391,30.689.1134,39.0416-.3779,64.4016-3.7038,65.7621-8.6927,127.7448-31.1047,186.7418-67.69,20.56-12.8879,24.6041-14.7776,30.6134-14.7776a21.4673,21.4673,0,0,1,19.5775,12.0942c1.5873,3.0235,2.0787,5.6691,2.3432,10.5824.2267,6.3117.1511,6.8786-2.4945,11.0737-3.2125,5.3668-9.4863,10.3179-25.4355,20.22a516.6854,516.6854,0,0,1-163.46,66.896,484.9048,484.9048,0,0,1-120.9419,11.7918c-40.062-.7559-67.803-3.9684-104.8793-12.2831A505.4237,505.4237,0,0,1,91.8726,302.279c-24.1128-16.1-26.456-18.8215-26.456-30.7267,0-10.4691,3.8172-16.4028,13.228-20.7114,5.4424-2.4566,10.8092-3.0235,14.5508-1.7385Z"
        fill="#46a9dd" />
    <path
        d="M724.9655,286.1031a22.0339,22.0339,0,0,1,15.4957,12.2832c2.91,5.5557,2.759,14.4752-.2267,20.7868-4.46,9.6-26.0025,29.1017-49.2083,44.5218-44.9,29.8953-116.4065,53.7813-177.8223,59.45-11.7163,1.096-15.798.4914-21.8074-2.9479a26.1532,26.1532,0,0,1-10.0154-11.0738c-3.4015-7.9368-.4914-18.8971,6.5384-25.2844,4.8754-4.3463,9.4485-5.9337,19.2373-6.69,23.81-1.6251,60.7733-9.8265,91.4622-20.22,37.3409-12.5477,65.233-27.7411,88.0986-47.81,5.2157-4.5353,12.2454-10.7335,15.6091-13.6059,9.0706-7.9368,16.1-10.8848,22.6388-9.4486ZM27.8868,295.854c3.7038,1.1339,7.2565,3.2881,20.1444,11.943,30.6134,20.6735,72.6407,37.0763,122.2646,47.9233,21.883,4.7621,34.09,7.8234,36.8117,9.2218,2.8346,1.3984,8.6927,10.1667,9.9021,14.6264a18.8969,18.8969,0,0,1-3.2125,16.2516c-6.7652,9.4864-12.0564,11.4895-26.9851,9.8265-33.9393-3.6283-99.0968-23.3569-131.2975-39.7974C28.945,352.3188,6.4952,336.294,2.1111,327.8659c-3.6283-7.2566-2.4567-18.4815,2.57-24.5286,4.9132-6.0849,16.4405-9.7131,23.2057-7.4833Z"
        fill="#46a9dd" />
    <path
        d="M28.038,394.1949c1.1338.3024,7.1809,3.6282,13.3036,7.3321a202.8417,202.8417,0,0,0,72.49,27.4009c9.4864,1.5874,14.0973,1.89,32.1252,1.89,35.4133.1134,56.3136-4.044,91.878-18.2168,18.8972-7.5589,22.79-8.2014,29.9709-4.9133,9.9022,4.5353,13.4548,10.0911,13.53,21.0137,0,8.1636-1.0582,11.1493-5.6691,15.609-8.8439,8.5038-46.9784,22.6766-76.8737,28.6482-17.1208,3.4014-27.023,4.1951-50.38,4.1951-31.4448,0-49.2082-2.3054-72.4895-9.4863-23.81-7.2565-57.7119-24.1884-68.37-34.0149C1.6953,428.21.2214,424.8084.2214,416.4558c0-6.16.34-7.4833,2.381-11.3761,4.6487-8.2769,16.7807-13.53,25.4356-10.8847Zm323.066,7.7478c5.0266,2.57,8.5037,6.9164,14.6264,18.2547a128.5,128.5,0,0,0,16.8562,25.171c15.269,18.1413,39.9487,33.9393,67.1984,42.8588,19.5774,6.425,35.4133,8.92,63.1165,9.9777,10.4312.4157,20.2578,1.0582,21.7318,1.5873a22.2988,22.2988,0,0,1,15.8736,25.927,22.7144,22.7144,0,0,1-15.9492,17.65c-3.6283,1.2472-6.7652,1.5118-19.54,1.3984-55.18-.378-106.3533-16.8185-143.6941-46.0713A155.4121,155.4121,0,0,1,327.18,445.7841c-8.2769-16.3649-9.8265-24.2639-6.1982-32.4653,3.7038-8.3148,9.9777-12.4722,19.7286-13.1147,5.518-.34,6.803-.1511,10.3935,1.7386Z"
        fill="#46a9dd" />
    <path
        d="M442.3394,413.5834c1.5874.5669,8.088,3.8928,14.4375,7.3321,23.2057,12.6611,45.9957,19.9176,69.277,22.0719,13.2281,1.2094,43.917.4913,55.18-1.2473,18.33-2.91,38.2857-9.4863,59.6772-19.653,10.7336-5.14,13.1147-5.9337,17.9146-6.2739,14.5508-.907,24.1128,8.2392,24.1128,23.0546-.0756,9.7132-3.2881,14.3619-15.0422,21.3538-15.1177,8.9194-45.9579,20.3333-67.1983,24.68a210.4081,210.4081,0,0,1-51.8538,5.3668c-20.4089,0-28.5725-.6425-46.6382-4.12-39.0416-7.5211-81.56-27.8166-88.023-42.0273a24.3019,24.3019,0,0,1,.4157-18.1413c5.14-10.7336,17.4988-16.2516,27.7411-12.3965ZM317.278,462.9428c12.9635,5.0644,18.8972,18.5948,13.606,30.9913-3.5527,8.2391-11.0738,13.3414-31.5583,21.4294a263.4636,263.4636,0,0,1-92.7851,18.8972c-14.2863.5291-15.1177.4535-18.746-1.285a23.9618,23.9618,0,0,1-13.228-21.9585c0-5.0645.3779-6.614,2.759-10.96a26.2058,26.2058,0,0,1,5.4424-7.1809c5.6691-4.4219,6.2738-4.4975,37.9077-7.4832,25.3978-2.4566,45.24-7.0676,65.6109-15.42,19.1618-7.9369,25.2089-9.26,30.9914-7.03Z"
        fill="#46a9dd" />
</svg>